<svg width="80" height="80" viewBox="0 0 80 80" fill="none" xmlns="http://www.w3.org/2000/svg">
<rect width="80" height="80" rx="3" fill="#FFB3B7"/>
<circle cx="39.5" cy="40.5" r="28.5" fill="#97A9AD"/>
<path d="M9.7322 48C9.4802 48 9.2462 47.982 9.0302 47.946C8.0222 47.91 7.1582 47.532 6.4382 46.812C5.7182 46.056 5.3582 45.174 5.3582 44.166C5.3942 42.546 5.3762 37.38 5.3042 28.668C5.2322 19.92 5.2682 14.718 5.4122 13.062C5.4482 12.09 5.8442 11.244 6.6002 10.524C7.3922 9.804 8.3102 9.462 9.3542 9.498C9.6782 9.39 10.0022 9.336 10.3262 9.336C11.7302 9.192 12.7562 9.102 13.4042 9.066C14.0882 9.03 15.1862 8.994 16.6982 8.958C18.2462 8.886 19.5422 8.94 20.5862 9.12C21.6662 9.3 22.8722 9.552 24.2042 9.876C25.5722 10.164 26.8502 10.632 28.0382 11.28C29.2262 11.928 30.3062 12.702 31.2782 13.602C33.1502 15.294 34.5542 17.328 35.4902 19.704C36.4622 22.08 36.9302 24.672 36.8942 27.48C36.8582 30.252 36.4442 32.826 35.6522 35.202C34.8962 37.542 33.7082 39.684 32.0882 41.628C30.4682 43.536 28.5782 45.03 26.4182 46.11C24.1502 47.19 21.1622 47.82 17.4542 48C16.6982 48.036 15.3482 48.036 13.4042 48C11.4602 48 10.2362 48 9.7322 48ZM17.1302 40.602C19.7942 40.422 21.7742 40.026 23.0702 39.414C25.2302 38.37 26.8862 36.624 28.0382 34.176C29.1902 31.728 29.6042 29.01 29.2802 26.022C28.9562 22.998 27.9302 20.694 26.2022 19.11C24.7982 17.85 23.0162 17.058 20.8562 16.734C18.7322 16.41 16.0682 16.374 12.8642 16.626C12.8282 20.046 12.8102 22.674 12.8102 24.51C12.8102 26.346 12.8282 29.064 12.8642 32.664C12.9002 36.264 12.9182 38.892 12.9182 40.548C14.6822 40.62 16.0862 40.638 17.1302 40.602Z" fill="white"/>
<path d="M60.2856 71.486C57.5136 71.558 55.0116 71.126 52.7796 70.19C50.5476 69.254 48.7836 67.886 47.4876 66.086C46.1916 64.286 45.5436 62.198 45.5436 59.822C45.5436 58.382 45.9576 57.266 46.7856 56.474C47.6136 55.646 48.5496 55.232 49.5936 55.232C50.6376 55.232 51.4836 55.61 52.1316 56.366C52.7796 57.086 53.1036 57.896 53.1036 58.796C53.1036 59.696 53.1576 60.452 53.2656 61.064C53.3736 61.64 53.6436 62.18 54.0756 62.684C54.9036 63.692 57.0096 64.196 60.3936 64.196C62.2296 64.196 63.7956 63.818 65.0916 63.062C66.3876 62.306 67.0356 61.226 67.0356 59.822C67.0356 58.886 66.2796 57.986 64.7676 57.122C63.7236 56.546 61.4016 55.646 57.8016 54.422C53.8776 53.126 50.9256 51.632 48.9456 49.94C46.9656 48.212 45.9756 45.872 45.9756 42.92C45.9756 40.652 46.6236 38.672 47.9196 36.98C49.2156 35.288 50.9076 33.992 52.9956 33.092C55.1196 32.192 57.3696 31.742 59.7456 31.742C62.1936 31.67 64.5516 32.066 66.8196 32.93C69.0876 33.794 70.9056 35.036 72.2736 36.656C73.6776 38.24 74.3796 40.04 74.3796 42.056C74.3796 43.136 73.9836 44.072 73.1916 44.864C72.3996 45.62 71.4816 45.998 70.4376 45.998C69.7176 45.998 69.0156 45.782 68.3316 45.35C67.6476 44.918 67.2156 44.378 67.0356 43.73C66.8196 42.866 66.4956 42.2 66.0636 41.732C65.6676 41.264 65.1276 40.832 64.4436 40.436C63.5436 39.932 62.7336 39.572 62.0136 39.356C61.2936 39.14 60.2676 39.032 58.9356 39.032C57.3516 39.032 56.0376 39.338 54.9936 39.95C53.9856 40.526 53.4816 41.282 53.4816 42.218C53.4816 43.406 54.0576 44.378 55.2096 45.134C56.3976 45.89 58.0536 46.61 60.1776 47.294C64.2816 48.662 67.0176 49.724 68.3856 50.48C70.6536 51.74 72.2556 53.072 73.1916 54.476C74.1276 55.88 74.5956 57.644 74.5956 59.768C74.5956 62.036 73.9116 64.07 72.5436 65.87C71.1756 67.634 69.3756 69.02 67.1436 70.028C64.9476 71 62.6616 71.486 60.2856 71.486Z" fill="white"/>
</svg>
