<svg width="100" height="70" viewBox="0 0 100 70" fill="none" xmlns="http://www.w3.org/2000/svg">
<rect width="100" height="70" rx="3" fill="#FFB3B7"/>
<circle cx="49.5" cy="35.5" r="28.5" fill="#97A9AD"/>
<path d="M19.7322 43C19.4802 43 19.2462 42.982 19.0302 42.946C18.0222 42.91 17.1582 42.532 16.4382 41.812C15.7182 41.056 15.3582 40.174 15.3582 39.166C15.3942 37.546 15.3762 32.38 15.3042 23.668C15.2322 14.92 15.2682 9.718 15.4122 8.062C15.4482 7.09 15.8442 6.244 16.6002 5.524C17.3922 4.804 18.3102 4.462 19.3542 4.498C19.6782 4.39 20.0022 4.336 20.3262 4.336C21.7302 4.192 22.7562 4.102 23.4042 4.066C24.0882 4.03 25.1862 3.994 26.6982 3.958C28.2462 3.886 29.5422 3.94 30.5862 4.12C31.6662 4.3 32.8722 4.552 34.2042 4.876C35.5722 5.164 36.8502 5.632 38.0382 6.28C39.2262 6.928 40.3062 7.702 41.2782 8.602C43.1502 10.294 44.5542 12.328 45.4902 14.704C46.4622 17.08 46.9302 19.672 46.8942 22.48C46.8582 25.252 46.4442 27.826 45.6522 30.202C44.8962 32.542 43.7082 34.684 42.0882 36.628C40.4682 38.536 38.5782 40.03 36.4182 41.11C34.1502 42.19 31.1622 42.82 27.4542 43C26.6982 43.036 25.3482 43.036 23.4042 43C21.4602 43 20.2362 43 19.7322 43ZM27.1302 35.602C29.7942 35.422 31.7742 35.026 33.0702 34.414C35.2302 33.37 36.8862 31.624 38.0382 29.176C39.1902 26.728 39.6042 24.01 39.2802 21.022C38.9562 17.998 37.9302 15.694 36.2022 14.11C34.7982 12.85 33.0162 12.058 30.8562 11.734C28.7322 11.41 26.0682 11.374 22.8642 11.626C22.8282 15.046 22.8102 17.674 22.8102 19.51C22.8102 21.346 22.8282 24.064 22.8642 27.664C22.9002 31.264 22.9182 33.892 22.9182 35.548C24.6822 35.62 26.0862 35.638 27.1302 35.602Z" fill="white"/>
<path d="M70.2856 66.486C67.5136 66.558 65.0116 66.126 62.7796 65.19C60.5476 64.254 58.7836 62.886 57.4876 61.086C56.1916 59.286 55.5436 57.198 55.5436 54.822C55.5436 53.382 55.9576 52.266 56.7856 51.474C57.6136 50.646 58.5496 50.232 59.5936 50.232C60.6376 50.232 61.4836 50.61 62.1316 51.366C62.7796 52.086 63.1036 52.896 63.1036 53.796C63.1036 54.696 63.1576 55.452 63.2656 56.064C63.3736 56.64 63.6436 57.18 64.0756 57.684C64.9036 58.692 67.0096 59.196 70.3936 59.196C72.2296 59.196 73.7956 58.818 75.0916 58.062C76.3876 57.306 77.0356 56.226 77.0356 54.822C77.0356 53.886 76.2796 52.986 74.7676 52.122C73.7236 51.546 71.4016 50.646 67.8016 49.422C63.8776 48.126 60.9256 46.632 58.9456 44.94C56.9656 43.212 55.9756 40.872 55.9756 37.92C55.9756 35.652 56.6236 33.672 57.9196 31.98C59.2156 30.288 60.9076 28.992 62.9956 28.092C65.1196 27.192 67.3696 26.742 69.7456 26.742C72.1936 26.67 74.5516 27.066 76.8196 27.93C79.0876 28.794 80.9056 30.036 82.2736 31.656C83.6776 33.24 84.3796 35.04 84.3796 37.056C84.3796 38.136 83.9836 39.072 83.1916 39.864C82.3996 40.62 81.4816 40.998 80.4376 40.998C79.7176 40.998 79.0156 40.782 78.3316 40.35C77.6476 39.918 77.2156 39.378 77.0356 38.73C76.8196 37.866 76.4956 37.2 76.0636 36.732C75.6676 36.264 75.1276 35.832 74.4436 35.436C73.5436 34.932 72.7336 34.572 72.0136 34.356C71.2936 34.14 70.2676 34.032 68.9356 34.032C67.3516 34.032 66.0376 34.338 64.9936 34.95C63.9856 35.526 63.4816 36.282 63.4816 37.218C63.4816 38.406 64.0576 39.378 65.2096 40.134C66.3976 40.89 68.0536 41.61 70.1776 42.294C74.2816 43.662 77.0176 44.724 78.3856 45.48C80.6536 46.74 82.2556 48.072 83.1916 49.476C84.1276 50.88 84.5956 52.644 84.5956 54.768C84.5956 57.036 83.9116 59.07 82.5436 60.87C81.1756 62.634 79.3756 64.02 77.1436 65.028C74.9476 66 72.6616 66.486 70.2856 66.486Z" fill="white"/>
</svg>
