<svg width="100" height="50" viewBox="0 0 100 50" fill="none" xmlns="http://www.w3.org/2000/svg">
<rect width="100" height="50" rx="3" fill="#FFB3B7"/>
<circle cx="50" cy="25" r="20" fill="#97A9AD"/>
<path d="M18.7322 41C18.4802 41 18.2462 40.982 18.0302 40.946C17.0222 40.91 16.1582 40.532 15.4382 39.812C14.7182 39.056 14.3582 38.174 14.3582 37.166C14.3942 35.546 14.3762 30.38 14.3042 21.668C14.2322 12.92 14.2682 7.718 14.4122 6.062C14.4482 5.09 14.8442 4.244 15.6002 3.524C16.3922 2.804 17.3102 2.462 18.3542 2.498C18.6782 2.39 19.0022 2.336 19.3262 2.336C20.7302 2.192 21.7562 2.102 22.4042 2.066C23.0882 2.03 24.1862 1.994 25.6982 1.958C27.2462 1.886 28.5422 1.94 29.5862 2.12C30.6662 2.3 31.8722 2.552 33.2042 2.876C34.5722 3.164 35.8502 3.632 37.0382 4.28C38.2262 4.928 39.3062 5.702 40.2782 6.602C42.1502 8.294 43.5542 10.328 44.4902 12.704C45.4622 15.08 45.9302 17.672 45.8942 20.48C45.8582 23.252 45.4442 25.826 44.6522 28.202C43.8962 30.542 42.7082 32.684 41.0882 34.628C39.4682 36.536 37.5782 38.03 35.4182 39.11C33.1502 40.19 30.1622 40.82 26.4542 41C25.6982 41.036 24.3482 41.036 22.4042 41C20.4602 41 19.2362 41 18.7322 41ZM26.1302 33.602C28.7942 33.422 30.7742 33.026 32.0702 32.414C34.2302 31.37 35.8862 29.624 37.0382 27.176C38.1902 24.728 38.6042 22.01 38.2802 19.022C37.9562 15.998 36.9302 13.694 35.2022 12.11C33.7982 10.85 32.0162 10.058 29.8562 9.734C27.7322 9.41 25.0682 9.374 21.8642 9.626C21.8282 13.046 21.8102 15.674 21.8102 17.51C21.8102 19.346 21.8282 22.064 21.8642 25.664C21.9002 29.264 21.9182 31.892 21.9182 33.548C23.6822 33.62 25.0862 33.638 26.1302 33.602Z" fill="white"/>
<path d="M70.2856 48.486C67.5136 48.558 65.0116 48.126 62.7796 47.19C60.5476 46.254 58.7836 44.886 57.4876 43.086C56.1916 41.286 55.5436 39.198 55.5436 36.822C55.5436 35.382 55.9576 34.266 56.7856 33.474C57.6136 32.646 58.5496 32.232 59.5936 32.232C60.6376 32.232 61.4836 32.61 62.1316 33.366C62.7796 34.086 63.1036 34.896 63.1036 35.796C63.1036 36.696 63.1576 37.452 63.2656 38.064C63.3736 38.64 63.6436 39.18 64.0756 39.684C64.9036 40.692 67.0096 41.196 70.3936 41.196C72.2296 41.196 73.7956 40.818 75.0916 40.062C76.3876 39.306 77.0356 38.226 77.0356 36.822C77.0356 35.886 76.2796 34.986 74.7676 34.122C73.7236 33.546 71.4016 32.646 67.8016 31.422C63.8776 30.126 60.9256 28.632 58.9456 26.94C56.9656 25.212 55.9756 22.872 55.9756 19.92C55.9756 17.652 56.6236 15.672 57.9196 13.98C59.2156 12.288 60.9076 10.992 62.9956 10.092C65.1196 9.192 67.3696 8.742 69.7456 8.742C72.1936 8.67 74.5516 9.066 76.8196 9.93C79.0876 10.794 80.9056 12.036 82.2736 13.656C83.6776 15.24 84.3796 17.04 84.3796 19.056C84.3796 20.136 83.9836 21.072 83.1916 21.864C82.3996 22.62 81.4816 22.998 80.4376 22.998C79.7176 22.998 79.0156 22.782 78.3316 22.35C77.6476 21.918 77.2156 21.378 77.0356 20.73C76.8196 19.866 76.4956 19.2 76.0636 18.732C75.6676 18.264 75.1276 17.832 74.4436 17.436C73.5436 16.932 72.7336 16.572 72.0136 16.356C71.2936 16.14 70.2676 16.032 68.9356 16.032C67.3516 16.032 66.0376 16.338 64.9936 16.95C63.9856 17.526 63.4816 18.282 63.4816 19.218C63.4816 20.406 64.0576 21.378 65.2096 22.134C66.3976 22.89 68.0536 23.61 70.1776 24.294C74.2816 25.662 77.0176 26.724 78.3856 27.48C80.6536 28.74 82.2556 30.072 83.1916 31.476C84.1276 32.88 84.5956 34.644 84.5956 36.768C84.5956 39.036 83.9116 41.07 82.5436 42.87C81.1756 44.634 79.3756 46.02 77.1436 47.028C74.9476 48 72.6616 48.486 70.2856 48.486Z" fill="white"/>
</svg>
